<svg width="25" height="32" viewBox="0 0 25 32" fill="none" xmlns="http://www.w3.org/2000/svg">
<path d="M17.7158 7.85423C17.7158 8.14455 17.696 8.43487 17.6597 8.72189C17.6762 8.60642 17.6927 8.48765 17.7059 8.37218C17.6267 8.94622 17.475 9.50377 17.2539 10.0382C17.2968 9.93265 17.343 9.82708 17.3859 9.72151C17.1649 10.2428 16.8811 10.731 16.5347 11.1797L16.7426 10.9125C16.3995 11.3546 16.0003 11.7537 15.5582 12.0968L15.8254 11.889C15.3768 12.2321 14.8885 12.5191 14.3672 12.7402C14.4728 12.6973 14.5784 12.6511 14.684 12.6082C14.1495 12.8292 13.592 12.981 13.0179 13.0602C13.1334 13.0437 13.2521 13.0272 13.3676 13.014C12.7903 13.0899 12.2096 13.0899 11.6323 13.014C11.7478 13.0305 11.8665 13.047 11.982 13.0602C11.408 12.981 10.8504 12.8292 10.316 12.6082C10.4215 12.6511 10.5271 12.6973 10.6327 12.7402C10.1114 12.5191 9.62316 12.2354 9.17449 11.889L9.44171 12.0968C8.99963 11.7537 8.60044 11.3546 8.25734 10.9125L8.46518 11.1797C8.12208 10.731 7.83506 10.2428 7.61402 9.72151C7.65691 9.82708 7.70309 9.93265 7.74598 10.0382C7.52494 9.50377 7.37319 8.94622 7.29401 8.37218C7.3105 8.48765 7.327 8.60642 7.3402 8.72189C7.26432 8.14455 7.26432 7.56391 7.3402 6.98657C7.3237 7.10204 7.30721 7.22081 7.29401 7.33627C7.37319 6.76223 7.52494 6.20469 7.74598 5.67024C7.70309 5.77581 7.65691 5.88138 7.61402 5.98695C7.83506 5.46569 8.11878 4.97743 8.46518 4.52876L8.25734 4.79598C8.60044 4.3539 8.99963 3.95472 9.44171 3.61161L9.17449 3.81945C9.62316 3.47635 10.1114 3.18933 10.6327 2.96829C10.5271 3.01118 10.4215 3.05737 10.316 3.10025C10.8504 2.87921 11.408 2.72746 11.982 2.64828C11.8665 2.66477 11.7478 2.68127 11.6323 2.69447C12.2096 2.61859 12.7903 2.61859 13.3676 2.69447C13.2521 2.67797 13.1334 2.66148 13.0179 2.64828C13.592 2.72746 14.1495 2.87921 14.684 3.10025C14.5784 3.05737 14.4728 3.01118 14.3672 2.96829C14.8885 3.18933 15.3768 3.47305 15.8254 3.81945L15.5582 3.61161C16.0003 3.95472 16.3995 4.3539 16.7426 4.79598L16.5347 4.52876C16.8778 4.97743 17.1649 5.46569 17.3859 5.98695C17.343 5.88138 17.2968 5.77581 17.2539 5.67024C17.475 6.20469 17.6267 6.76223 17.7059 7.33627C17.6894 7.22081 17.6729 7.10204 17.6597 6.98657C17.696 7.27359 17.7125 7.56391 17.7158 7.85423C17.7191 8.54374 18.3195 9.20685 19.0354 9.17386C19.748 9.14087 20.3584 8.59322 20.3551 7.85423C20.3485 6.27397 19.8734 4.65742 18.9431 3.37078C18.6923 3.02437 18.4251 2.68457 18.1282 2.37775C17.828 2.06764 17.4981 1.80042 17.155 1.53979C16.5314 1.06472 15.8353 0.715017 15.0963 0.444493C12.1173 -0.647503 8.52457 0.325726 6.50883 2.78024C6.23171 3.11675 5.96778 3.46645 5.74344 3.84255C5.5191 4.21534 5.34425 4.61123 5.1826 5.01372C4.87908 5.75931 4.72403 6.55109 4.66134 7.35277C4.53928 8.92313 4.94836 10.5628 5.76653 11.9088C6.55502 13.2086 7.74598 14.3237 9.1382 14.9539C9.54728 15.1386 9.96626 15.3102 10.4017 15.4322C10.8339 15.551 11.2727 15.617 11.7181 15.6698C12.5296 15.7654 13.3577 15.6994 14.1594 15.5378C17.2044 14.9176 19.7546 12.2948 20.2264 9.21675C20.2957 8.76807 20.3485 8.3194 20.3485 7.86413C20.3518 7.17462 19.7381 6.5115 19.0288 6.54449C18.3162 6.56759 17.7158 7.11523 17.7158 7.85423ZM22.0937 28.4834H5.1661C4.41721 28.4834 3.66832 28.49 2.91943 28.4834C2.83695 28.4834 2.75447 28.4768 2.6753 28.4669C2.79076 28.4834 2.90953 28.4999 3.025 28.5131C2.89304 28.4933 2.76767 28.457 2.6456 28.4075C2.75118 28.4504 2.85675 28.4966 2.96232 28.5395C2.83035 28.4834 2.70829 28.4108 2.59282 28.3217L2.86004 28.5296C2.76107 28.4471 2.6687 28.358 2.58952 28.259L2.79736 28.5263C2.70829 28.4108 2.63901 28.2887 2.57962 28.1568C2.62251 28.2623 2.6687 28.3679 2.71159 28.4735C2.6621 28.3514 2.62911 28.2228 2.60602 28.0941C2.62251 28.2096 2.63901 28.3283 2.6522 28.4438C2.59942 28.0446 2.63571 27.6223 2.63571 27.2198V25.8078C2.63571 25.4548 2.6555 25.1051 2.70169 24.7554C2.68519 24.8709 2.6687 24.9897 2.6555 25.1051C2.74788 24.4288 2.92603 23.7657 3.19325 23.1356C3.15036 23.2411 3.10418 23.3467 3.06129 23.4523C3.31862 22.8519 3.64852 22.2877 4.04771 21.7698L3.83987 22.037C4.23906 21.5256 4.69763 21.0637 5.21229 20.6646L4.94506 20.8724C5.46302 20.4732 6.02716 20.1433 6.62759 19.886C6.52202 19.9289 6.41645 19.975 6.31088 20.0179C6.94101 19.754 7.60082 19.5726 8.28043 19.4802C8.16497 19.4967 8.0462 19.5132 7.93073 19.5264C8.419 19.4637 8.90396 19.4604 9.39552 19.4604H15.4328C15.9772 19.4604 16.5182 19.4571 17.0626 19.5264C16.9471 19.5099 16.8284 19.4934 16.7129 19.4802C17.3892 19.5726 18.0523 19.7507 18.6824 20.0179C18.5769 19.975 18.4713 19.9289 18.3657 19.886C18.9662 20.1433 19.5303 20.4732 20.0483 20.8724L19.781 20.6646C20.2924 21.0637 20.7543 21.5223 21.1534 22.037L20.9456 21.7698C21.3448 22.2877 21.6747 22.8519 21.932 23.4523C21.8891 23.3467 21.843 23.2411 21.8001 23.1356C22.064 23.7657 22.2454 24.4255 22.3378 25.1051C22.3213 24.9897 22.3048 24.8709 22.2916 24.7554C22.3543 25.2536 22.3576 25.7484 22.3576 26.2499V27.8829C22.3576 28.071 22.3642 28.259 22.3411 28.4438C22.3576 28.3283 22.3741 28.2096 22.3873 28.0941C22.3675 28.2261 22.3312 28.3514 22.2817 28.4735C22.3246 28.3679 22.3708 28.2623 22.4137 28.1568C22.3576 28.2887 22.285 28.4108 22.196 28.5263L22.4038 28.259C22.3213 28.358 22.2322 28.4504 22.1333 28.5296L22.4005 28.3217C22.285 28.4108 22.163 28.4801 22.031 28.5395C22.1366 28.4966 22.2421 28.4504 22.3477 28.4075C22.2256 28.457 22.097 28.49 21.9683 28.5131C22.0838 28.4966 22.2026 28.4801 22.318 28.4669C22.2454 28.4768 22.1696 28.4801 22.0937 28.4834C21.7539 28.4867 21.4042 28.6285 21.16 28.8694C20.9324 29.097 20.7576 29.4731 20.7741 29.803C20.807 30.509 21.3547 31.1325 22.0937 31.1226C23.377 31.1029 24.5053 30.2649 24.8814 29.0343C25.0299 28.5461 24.9969 28.0215 24.9969 27.5201C24.9969 26.372 25.0332 25.2338 24.8352 24.0956C24.5449 22.4296 23.7069 20.8625 22.5589 19.6319C21.4108 18.4014 19.8668 17.4974 18.2338 17.095C17.2968 16.864 16.3533 16.8277 15.3966 16.8277H9.54398C8.56415 16.8277 7.59093 16.8739 6.63749 17.1279C5.01764 17.5568 3.49347 18.4707 2.36848 19.7111C1.2336 20.9615 0.412127 22.5318 0.144901 24.2078C-0.0332489 25.3328 0.00304089 26.461 0.00304089 27.5959C0.00304089 28.1172 -0.0266507 28.6615 0.161397 29.1597C0.405529 29.7997 0.79482 30.3045 1.36556 30.6839C1.81094 30.9775 2.37508 31.1193 2.90293 31.1259C3.16026 31.1292 3.41759 31.1259 3.67492 31.1259H22.097C22.7865 31.1259 23.4496 30.5189 23.4166 29.8063C23.3836 29.0871 22.836 28.4834 22.0937 28.4834Z" fill="white"/>
</svg>
